# xmcd
#
# Track frame offsets:
#	150
#	29863
#	49116
#	82261
#	119414
#	160033
#	195523
#	211752
#	239001
#	261718
#	277000
#	309913
#
# Disc length: 4627 seconds
#
# Revision: 0
# Processed by: cddbd v1.5.1PL0 Copyright (c) Steve Scherf et al.
# Submitted via: audiograbber 1.83.01
#
DISCID=b512110c
DTITLE=Various Artist - Old
DYEAR=1900
DGENRE=
TTITLE0=Active Soul. - Hey You. (Vapour Disco Mix)
TTITLE1=ATB. - I Wanna Cry.
TTITLE2=Benefit. - Sex Sells. (Almighty Mix)
TTITLE3=Brancaccio and Aisher. - Lovely Day. (Bini and Martini Club Mix)
TTITLE4=Cosmos. - Take Me With You. (Extended Club Mix)
TTITLE5=D.O.N.S. feat. Technotronic. - Pump Up The Jam. (Boys'N'Us Mix)
TTITLE6=David Guetta feat. Chris Wills. - Love Don't Let Me Go.
TTITLE7=Disco Doggie. - v
TTITLE8=Discowonder. - Boogie Wonderland.
TTITLE9=Dj Cavarra and The Piza Express. - Amada Mia Amore Mio.
TTITLE10=Dj Mendez. - Adrenaline. (Rmx)
TTITLE11=E-Smove pres. The House Avangers. - Something Special.
EXTD=
EXTT0=
EXTT1=
EXTT2=
EXTT3=
EXTT4=
EXTT5=
EXTT6=
EXTT7=
EXTT8=
EXTT9=
EXTT10=
EXTT11=
PLAYORDER=
